<mxfile host="app.diagrams.net" modified="2022-03-27T16:45:37.402Z" agent="5.0 (Windows NT 10.0; Win64; x64) AppleWebKit/537.36 (KHTML, like Gecko) Chrome/99.0.4844.82 Safari/537.36" etag="BCWPaxYvQ_cYnjOD8-k-" version="16.6.6" type="github">
  <diagram id="QTfYeUQ7Rm9unRvWBGcr" name="Page-1">
    <mxGraphModel dx="1202" dy="786" grid="1" gridSize="10" guides="1" tooltips="1" connect="1" arrows="1" fold="1" page="1" pageScale="1" pageWidth="1169" pageHeight="827" math="0" shadow="0">
      <root>
        <mxCell id="0" />
        <mxCell id="1" parent="0" />
        <mxCell id="ghC1JUFGdTgHSyiH8fSR-14" value="" style="edgeStyle=orthogonalEdgeStyle;rounded=0;orthogonalLoop=1;jettySize=auto;html=1;fontFamily=Times New Roman;fontSize=14;" parent="1" source="ghC1JUFGdTgHSyiH8fSR-1" target="ghC1JUFGdTgHSyiH8fSR-2" edge="1">
          <mxGeometry relative="1" as="geometry" />
        </mxCell>
        <mxCell id="ghC1JUFGdTgHSyiH8fSR-1" value="20 gram Ekstrak MeOH&lt;br style=&quot;font-size: 14px&quot;&gt;(20 + 1) gram Silika Impregnasi = 40 gram" style="rounded=0;whiteSpace=wrap;html=1;fontFamily=Times New Roman;fontSize=14;" parent="1" vertex="1">
          <mxGeometry x="275" y="40" width="250" height="60" as="geometry" />
        </mxCell>
        <mxCell id="ghC1JUFGdTgHSyiH8fSR-15" style="edgeStyle=orthogonalEdgeStyle;rounded=0;orthogonalLoop=1;jettySize=auto;html=1;entryX=0.5;entryY=0;entryDx=0;entryDy=0;fontFamily=Times New Roman;fontSize=14;" parent="1" source="ghC1JUFGdTgHSyiH8fSR-2" target="ghC1JUFGdTgHSyiH8fSR-12" edge="1">
          <mxGeometry relative="1" as="geometry">
            <Array as="points">
              <mxPoint x="400" y="260" />
              <mxPoint x="370" y="260" />
            </Array>
          </mxGeometry>
        </mxCell>
        <mxCell id="ghC1JUFGdTgHSyiH8fSR-16" style="edgeStyle=orthogonalEdgeStyle;rounded=0;orthogonalLoop=1;jettySize=auto;html=1;fontFamily=Times New Roman;fontSize=14;" parent="1" source="ghC1JUFGdTgHSyiH8fSR-2" target="ghC1JUFGdTgHSyiH8fSR-13" edge="1">
          <mxGeometry relative="1" as="geometry">
            <Array as="points">
              <mxPoint x="400" y="260" />
              <mxPoint x="290" y="260" />
            </Array>
          </mxGeometry>
        </mxCell>
        <mxCell id="ghC1JUFGdTgHSyiH8fSR-17" style="edgeStyle=orthogonalEdgeStyle;rounded=0;orthogonalLoop=1;jettySize=auto;html=1;entryX=0.5;entryY=0;entryDx=0;entryDy=0;fontFamily=Times New Roman;fontSize=14;" parent="1" source="ghC1JUFGdTgHSyiH8fSR-2" target="ghC1JUFGdTgHSyiH8fSR-6" edge="1">
          <mxGeometry relative="1" as="geometry">
            <Array as="points">
              <mxPoint x="400" y="260" />
              <mxPoint x="210" y="260" />
            </Array>
          </mxGeometry>
        </mxCell>
        <mxCell id="ghC1JUFGdTgHSyiH8fSR-18" style="edgeStyle=orthogonalEdgeStyle;rounded=0;orthogonalLoop=1;jettySize=auto;html=1;entryX=0.5;entryY=0;entryDx=0;entryDy=0;fontFamily=Times New Roman;fontSize=14;" parent="1" source="ghC1JUFGdTgHSyiH8fSR-2" target="ghC1JUFGdTgHSyiH8fSR-5" edge="1">
          <mxGeometry relative="1" as="geometry">
            <Array as="points">
              <mxPoint x="400" y="260" />
              <mxPoint x="130" y="260" />
            </Array>
          </mxGeometry>
        </mxCell>
        <mxCell id="ghC1JUFGdTgHSyiH8fSR-19" style="edgeStyle=orthogonalEdgeStyle;rounded=0;orthogonalLoop=1;jettySize=auto;html=1;entryX=0.5;entryY=0;entryDx=0;entryDy=0;fontFamily=Times New Roman;fontSize=14;" parent="1" source="ghC1JUFGdTgHSyiH8fSR-2" target="ghC1JUFGdTgHSyiH8fSR-4" edge="1">
          <mxGeometry relative="1" as="geometry">
            <Array as="points">
              <mxPoint x="400" y="260" />
              <mxPoint x="50" y="260" />
            </Array>
          </mxGeometry>
        </mxCell>
        <mxCell id="ghC1JUFGdTgHSyiH8fSR-20" style="edgeStyle=orthogonalEdgeStyle;rounded=0;orthogonalLoop=1;jettySize=auto;html=1;entryX=0.5;entryY=0;entryDx=0;entryDy=0;fontFamily=Times New Roman;fontSize=14;" parent="1" source="ghC1JUFGdTgHSyiH8fSR-2" target="ghC1JUFGdTgHSyiH8fSR-7" edge="1">
          <mxGeometry relative="1" as="geometry">
            <Array as="points">
              <mxPoint x="400" y="260" />
              <mxPoint x="461" y="260" />
            </Array>
          </mxGeometry>
        </mxCell>
        <mxCell id="ghC1JUFGdTgHSyiH8fSR-21" style="edgeStyle=orthogonalEdgeStyle;rounded=0;orthogonalLoop=1;jettySize=auto;html=1;fontFamily=Times New Roman;fontSize=14;" parent="1" source="ghC1JUFGdTgHSyiH8fSR-2" target="ghC1JUFGdTgHSyiH8fSR-8" edge="1">
          <mxGeometry relative="1" as="geometry">
            <Array as="points">
              <mxPoint x="400" y="260" />
              <mxPoint x="541" y="260" />
            </Array>
          </mxGeometry>
        </mxCell>
        <mxCell id="ghC1JUFGdTgHSyiH8fSR-22" style="edgeStyle=orthogonalEdgeStyle;rounded=0;orthogonalLoop=1;jettySize=auto;html=1;fontFamily=Times New Roman;fontSize=14;" parent="1" source="ghC1JUFGdTgHSyiH8fSR-2" target="ghC1JUFGdTgHSyiH8fSR-9" edge="1">
          <mxGeometry relative="1" as="geometry">
            <Array as="points">
              <mxPoint x="400" y="260" />
              <mxPoint x="621" y="260" />
            </Array>
          </mxGeometry>
        </mxCell>
        <mxCell id="ghC1JUFGdTgHSyiH8fSR-23" style="edgeStyle=orthogonalEdgeStyle;rounded=0;orthogonalLoop=1;jettySize=auto;html=1;fontFamily=Times New Roman;fontSize=14;" parent="1" source="ghC1JUFGdTgHSyiH8fSR-2" target="ghC1JUFGdTgHSyiH8fSR-10" edge="1">
          <mxGeometry relative="1" as="geometry">
            <Array as="points">
              <mxPoint x="400" y="260" />
              <mxPoint x="701" y="260" />
            </Array>
          </mxGeometry>
        </mxCell>
        <mxCell id="ghC1JUFGdTgHSyiH8fSR-24" style="edgeStyle=orthogonalEdgeStyle;rounded=0;orthogonalLoop=1;jettySize=auto;html=1;entryX=0.5;entryY=0;entryDx=0;entryDy=0;fontFamily=Times New Roman;fontSize=14;" parent="1" source="ghC1JUFGdTgHSyiH8fSR-2" target="ghC1JUFGdTgHSyiH8fSR-11" edge="1">
          <mxGeometry relative="1" as="geometry">
            <Array as="points">
              <mxPoint x="400" y="260" />
              <mxPoint x="780" y="260" />
            </Array>
          </mxGeometry>
        </mxCell>
        <mxCell id="ghC1JUFGdTgHSyiH8fSR-2" value="33 Fraksi" style="rounded=0;whiteSpace=wrap;html=1;fontFamily=Times New Roman;fontSize=14;" parent="1" vertex="1">
          <mxGeometry x="340" y="130" width="120" height="50" as="geometry" />
        </mxCell>
        <mxCell id="ghC1JUFGdTgHSyiH8fSR-3" value="KLT eluen 15:5 (&lt;i&gt;n&lt;/i&gt;-Heksan : EtOAc)&lt;br&gt;&lt;br&gt;dilakukan pemurnian dengan Kromatografi Kolom" style="text;html=1;strokeColor=none;fillColor=none;align=center;verticalAlign=middle;whiteSpace=wrap;rounded=0;fontFamily=Times New Roman;fontSize=14;" parent="1" vertex="1">
          <mxGeometry x="400" y="210" width="239" height="30" as="geometry" />
        </mxCell>
        <mxCell id="ghC1JUFGdTgHSyiH8fSR-35" value="" style="edgeStyle=orthogonalEdgeStyle;rounded=0;orthogonalLoop=1;jettySize=auto;html=1;fontFamily=Times New Roman;fontSize=14;" parent="1" source="ghC1JUFGdTgHSyiH8fSR-4" target="ghC1JUFGdTgHSyiH8fSR-25" edge="1">
          <mxGeometry relative="1" as="geometry" />
        </mxCell>
        <mxCell id="ghC1JUFGdTgHSyiH8fSR-4" value="F. 1&lt;br style=&quot;font-size: 14px&quot;&gt;&lt;br style=&quot;font-size: 14px&quot;&gt;8 - 9" style="rounded=0;whiteSpace=wrap;html=1;fontFamily=Times New Roman;fontSize=14;" parent="1" vertex="1">
          <mxGeometry x="20" y="296" width="60" height="80" as="geometry" />
        </mxCell>
        <mxCell id="ghC1JUFGdTgHSyiH8fSR-36" value="" style="edgeStyle=orthogonalEdgeStyle;rounded=0;orthogonalLoop=1;jettySize=auto;html=1;fontFamily=Times New Roman;fontSize=14;" parent="1" source="ghC1JUFGdTgHSyiH8fSR-5" target="ghC1JUFGdTgHSyiH8fSR-26" edge="1">
          <mxGeometry relative="1" as="geometry" />
        </mxCell>
        <mxCell id="ghC1JUFGdTgHSyiH8fSR-5" value="F. 2&lt;br style=&quot;font-size: 14px&quot;&gt;&lt;br style=&quot;font-size: 14px&quot;&gt;10 - 11" style="rounded=0;whiteSpace=wrap;html=1;fontFamily=Times New Roman;fontSize=14;" parent="1" vertex="1">
          <mxGeometry x="100" y="296" width="60" height="80" as="geometry" />
        </mxCell>
        <mxCell id="ghC1JUFGdTgHSyiH8fSR-37" value="" style="edgeStyle=orthogonalEdgeStyle;rounded=0;orthogonalLoop=1;jettySize=auto;html=1;fontFamily=Times New Roman;fontSize=14;" parent="1" source="ghC1JUFGdTgHSyiH8fSR-6" target="ghC1JUFGdTgHSyiH8fSR-27" edge="1">
          <mxGeometry relative="1" as="geometry" />
        </mxCell>
        <mxCell id="ghC1JUFGdTgHSyiH8fSR-6" value="F. 3&lt;br style=&quot;font-size: 14px&quot;&gt;&lt;br style=&quot;font-size: 14px&quot;&gt;12 - 13" style="rounded=0;whiteSpace=wrap;html=1;fontFamily=Times New Roman;fontSize=14;" parent="1" vertex="1">
          <mxGeometry x="180" y="296" width="60" height="80" as="geometry" />
        </mxCell>
        <mxCell id="ghC1JUFGdTgHSyiH8fSR-40" value="" style="edgeStyle=orthogonalEdgeStyle;rounded=0;orthogonalLoop=1;jettySize=auto;html=1;fontFamily=Times New Roman;fontSize=14;" parent="1" source="ghC1JUFGdTgHSyiH8fSR-7" target="ghC1JUFGdTgHSyiH8fSR-30" edge="1">
          <mxGeometry relative="1" as="geometry" />
        </mxCell>
        <mxCell id="ghC1JUFGdTgHSyiH8fSR-7" value="F. 6&lt;br style=&quot;font-size: 14px&quot;&gt;&lt;br style=&quot;font-size: 14px&quot;&gt;19 - 20" style="rounded=0;whiteSpace=wrap;html=1;fontFamily=Times New Roman;fontSize=14;" parent="1" vertex="1">
          <mxGeometry x="431" y="296" width="60" height="80" as="geometry" />
        </mxCell>
        <mxCell id="ghC1JUFGdTgHSyiH8fSR-41" value="" style="edgeStyle=orthogonalEdgeStyle;rounded=0;orthogonalLoop=1;jettySize=auto;html=1;fontFamily=Times New Roman;fontSize=14;" parent="1" source="ghC1JUFGdTgHSyiH8fSR-8" target="ghC1JUFGdTgHSyiH8fSR-31" edge="1">
          <mxGeometry relative="1" as="geometry" />
        </mxCell>
        <mxCell id="ghC1JUFGdTgHSyiH8fSR-8" value="F. 7&lt;br style=&quot;font-size: 14px&quot;&gt;&lt;br style=&quot;font-size: 14px&quot;&gt;21 - 22" style="rounded=0;whiteSpace=wrap;html=1;fontFamily=Times New Roman;fontSize=14;" parent="1" vertex="1">
          <mxGeometry x="511" y="296" width="60" height="80" as="geometry" />
        </mxCell>
        <mxCell id="ghC1JUFGdTgHSyiH8fSR-42" value="" style="edgeStyle=orthogonalEdgeStyle;rounded=0;orthogonalLoop=1;jettySize=auto;html=1;fontFamily=Times New Roman;fontSize=14;" parent="1" source="ghC1JUFGdTgHSyiH8fSR-9" target="ghC1JUFGdTgHSyiH8fSR-32" edge="1">
          <mxGeometry relative="1" as="geometry" />
        </mxCell>
        <mxCell id="ghC1JUFGdTgHSyiH8fSR-9" value="F. 8&lt;br style=&quot;font-size: 14px&quot;&gt;&lt;br style=&quot;font-size: 14px&quot;&gt;23 - 28" style="rounded=0;whiteSpace=wrap;html=1;fontFamily=Times New Roman;fontSize=14;" parent="1" vertex="1">
          <mxGeometry x="591" y="296" width="60" height="80" as="geometry" />
        </mxCell>
        <mxCell id="ghC1JUFGdTgHSyiH8fSR-43" value="" style="edgeStyle=orthogonalEdgeStyle;rounded=0;orthogonalLoop=1;jettySize=auto;html=1;fontFamily=Times New Roman;fontSize=14;" parent="1" source="ghC1JUFGdTgHSyiH8fSR-10" target="ghC1JUFGdTgHSyiH8fSR-33" edge="1">
          <mxGeometry relative="1" as="geometry" />
        </mxCell>
        <mxCell id="ghC1JUFGdTgHSyiH8fSR-10" value="F. 9&lt;br style=&quot;font-size: 14px&quot;&gt;&lt;br style=&quot;font-size: 14px&quot;&gt;29 - 30" style="rounded=0;whiteSpace=wrap;html=1;fontFamily=Times New Roman;fontSize=14;" parent="1" vertex="1">
          <mxGeometry x="671" y="296" width="60" height="80" as="geometry" />
        </mxCell>
        <mxCell id="ghC1JUFGdTgHSyiH8fSR-44" value="" style="edgeStyle=orthogonalEdgeStyle;rounded=0;orthogonalLoop=1;jettySize=auto;html=1;fontFamily=Times New Roman;fontSize=14;" parent="1" source="ghC1JUFGdTgHSyiH8fSR-11" target="ghC1JUFGdTgHSyiH8fSR-34" edge="1">
          <mxGeometry relative="1" as="geometry" />
        </mxCell>
        <mxCell id="ghC1JUFGdTgHSyiH8fSR-11" value="F. 10&lt;br style=&quot;font-size: 14px&quot;&gt;&lt;br style=&quot;font-size: 14px&quot;&gt;30 - 33" style="rounded=0;whiteSpace=wrap;html=1;fontFamily=Times New Roman;fontSize=14;" parent="1" vertex="1">
          <mxGeometry x="750" y="296" width="60" height="80" as="geometry" />
        </mxCell>
        <mxCell id="ghC1JUFGdTgHSyiH8fSR-39" value="" style="edgeStyle=orthogonalEdgeStyle;rounded=0;orthogonalLoop=1;jettySize=auto;html=1;fontFamily=Times New Roman;fontSize=14;" parent="1" source="ghC1JUFGdTgHSyiH8fSR-12" target="ghC1JUFGdTgHSyiH8fSR-29" edge="1">
          <mxGeometry relative="1" as="geometry" />
        </mxCell>
        <mxCell id="ghC1JUFGdTgHSyiH8fSR-12" value="F. 5&lt;br style=&quot;font-size: 14px&quot;&gt;&lt;br style=&quot;font-size: 14px&quot;&gt;12 - 13" style="rounded=0;whiteSpace=wrap;html=1;fontFamily=Times New Roman;fontSize=14;" parent="1" vertex="1">
          <mxGeometry x="340" y="296" width="60" height="80" as="geometry" />
        </mxCell>
        <mxCell id="ghC1JUFGdTgHSyiH8fSR-38" value="" style="edgeStyle=orthogonalEdgeStyle;rounded=0;orthogonalLoop=1;jettySize=auto;html=1;fontFamily=Times New Roman;fontSize=14;" parent="1" source="ghC1JUFGdTgHSyiH8fSR-13" target="ghC1JUFGdTgHSyiH8fSR-28" edge="1">
          <mxGeometry relative="1" as="geometry" />
        </mxCell>
        <mxCell id="ghC1JUFGdTgHSyiH8fSR-13" value="F. 4&lt;br style=&quot;font-size: 14px&quot;&gt;&lt;br style=&quot;font-size: 14px&quot;&gt;14 - 16" style="rounded=0;whiteSpace=wrap;html=1;fontFamily=Times New Roman;fontSize=14;" parent="1" vertex="1">
          <mxGeometry x="260" y="296" width="60" height="80" as="geometry" />
        </mxCell>
        <mxCell id="DmQkIlmsLLkJQzEmTqlr-2" value="" style="edgeStyle=orthogonalEdgeStyle;rounded=0;orthogonalLoop=1;jettySize=auto;html=1;fontFamily=Times New Roman;fontSize=14;" parent="1" source="ghC1JUFGdTgHSyiH8fSR-25" edge="1">
          <mxGeometry relative="1" as="geometry">
            <mxPoint x="50" y="510" as="targetPoint" />
          </mxGeometry>
        </mxCell>
        <mxCell id="ghC1JUFGdTgHSyiH8fSR-25" value="122 mg" style="rounded=0;whiteSpace=wrap;html=1;fontFamily=Times New Roman;fontSize=14;" parent="1" vertex="1">
          <mxGeometry x="20" y="410" width="60" height="40" as="geometry" />
        </mxCell>
        <mxCell id="DmQkIlmsLLkJQzEmTqlr-3" style="edgeStyle=orthogonalEdgeStyle;rounded=0;orthogonalLoop=1;jettySize=auto;html=1;fontFamily=Times New Roman;fontSize=14;" parent="1" source="ghC1JUFGdTgHSyiH8fSR-26" edge="1">
          <mxGeometry relative="1" as="geometry">
            <mxPoint x="130" y="510" as="targetPoint" />
          </mxGeometry>
        </mxCell>
        <mxCell id="ghC1JUFGdTgHSyiH8fSR-26" value="19&amp;nbsp;mg" style="rounded=0;whiteSpace=wrap;html=1;fontFamily=Times New Roman;fontSize=14;" parent="1" vertex="1">
          <mxGeometry x="100" y="410" width="60" height="40" as="geometry" />
        </mxCell>
        <mxCell id="DmQkIlmsLLkJQzEmTqlr-4" style="edgeStyle=orthogonalEdgeStyle;rounded=0;orthogonalLoop=1;jettySize=auto;html=1;fontFamily=Times New Roman;fontSize=14;" parent="1" source="ghC1JUFGdTgHSyiH8fSR-27" edge="1">
          <mxGeometry relative="1" as="geometry">
            <mxPoint x="210" y="510" as="targetPoint" />
          </mxGeometry>
        </mxCell>
        <mxCell id="ghC1JUFGdTgHSyiH8fSR-27" value="103&amp;nbsp;mg" style="rounded=0;whiteSpace=wrap;html=1;fontFamily=Times New Roman;fontSize=14;" parent="1" vertex="1">
          <mxGeometry x="180" y="410" width="60" height="40" as="geometry" />
        </mxCell>
        <mxCell id="ghC1JUFGdTgHSyiH8fSR-28" value="76,1&amp;nbsp;mg" style="rounded=0;whiteSpace=wrap;html=1;fontFamily=Times New Roman;fontSize=14;" parent="1" vertex="1">
          <mxGeometry x="260" y="410" width="60" height="40" as="geometry" />
        </mxCell>
        <mxCell id="ghC1JUFGdTgHSyiH8fSR-29" value="47,5&amp;nbsp;mg" style="rounded=0;whiteSpace=wrap;html=1;fontFamily=Times New Roman;fontSize=14;" parent="1" vertex="1">
          <mxGeometry x="340" y="410" width="60" height="40" as="geometry" />
        </mxCell>
        <mxCell id="ghC1JUFGdTgHSyiH8fSR-30" value="89,7&amp;nbsp;mg" style="rounded=0;whiteSpace=wrap;html=1;fontFamily=Times New Roman;fontSize=14;" parent="1" vertex="1">
          <mxGeometry x="431" y="410" width="60" height="40" as="geometry" />
        </mxCell>
        <mxCell id="ghC1JUFGdTgHSyiH8fSR-31" value="35&amp;nbsp;mg" style="rounded=0;whiteSpace=wrap;html=1;fontFamily=Times New Roman;fontSize=14;" parent="1" vertex="1">
          <mxGeometry x="511" y="410" width="60" height="40" as="geometry" />
        </mxCell>
        <mxCell id="ghC1JUFGdTgHSyiH8fSR-32" value="65,4&amp;nbsp;mg" style="rounded=0;whiteSpace=wrap;html=1;fontFamily=Times New Roman;fontSize=14;" parent="1" vertex="1">
          <mxGeometry x="591" y="410" width="60" height="40" as="geometry" />
        </mxCell>
        <mxCell id="ghC1JUFGdTgHSyiH8fSR-33" value="45,1&amp;nbsp;mg" style="rounded=0;whiteSpace=wrap;html=1;fontFamily=Times New Roman;fontSize=14;" parent="1" vertex="1">
          <mxGeometry x="671" y="410" width="60" height="40" as="geometry" />
        </mxCell>
        <mxCell id="ghC1JUFGdTgHSyiH8fSR-34" value="76,8&amp;nbsp;mg" style="rounded=0;whiteSpace=wrap;html=1;fontFamily=Times New Roman;fontSize=14;" parent="1" vertex="1">
          <mxGeometry x="750" y="410" width="60" height="40" as="geometry" />
        </mxCell>
        <mxCell id="DmQkIlmsLLkJQzEmTqlr-6" value="dilakukan&lt;br&gt;pemurnian (KKG)" style="text;html=1;strokeColor=none;fillColor=none;align=center;verticalAlign=middle;whiteSpace=wrap;rounded=0;fontFamily=Times New Roman;fontSize=14;" parent="1" vertex="1">
          <mxGeometry x="57" y="464" width="60" height="30" as="geometry" />
        </mxCell>
        <mxCell id="DmQkIlmsLLkJQzEmTqlr-7" value="rekristalisasi (aseton)" style="text;html=1;strokeColor=none;fillColor=none;align=center;verticalAlign=middle;whiteSpace=wrap;rounded=0;fontFamily=Times New Roman;fontSize=14;" parent="1" vertex="1">
          <mxGeometry x="140" y="464" width="60" height="30" as="geometry" />
        </mxCell>
        <mxCell id="DmQkIlmsLLkJQzEmTqlr-8" value="dilakukan&lt;br&gt;pemurnian (KKG)" style="text;html=1;strokeColor=none;fillColor=none;align=center;verticalAlign=middle;whiteSpace=wrap;rounded=0;fontFamily=Times New Roman;fontSize=14;" parent="1" vertex="1">
          <mxGeometry x="220" y="470" width="60" height="30" as="geometry" />
        </mxCell>
        <mxCell id="DmQkIlmsLLkJQzEmTqlr-14" style="edgeStyle=orthogonalEdgeStyle;rounded=0;orthogonalLoop=1;jettySize=auto;html=1;fontFamily=Times New Roman;fontSize=14;" parent="1" source="DmQkIlmsLLkJQzEmTqlr-9" edge="1">
          <mxGeometry relative="1" as="geometry">
            <mxPoint x="130" y="620" as="targetPoint" />
            <Array as="points">
              <mxPoint x="50" y="580" />
              <mxPoint x="130" y="580" />
            </Array>
          </mxGeometry>
        </mxCell>
        <mxCell id="DmQkIlmsLLkJQzEmTqlr-9" value="Eluat F. 1" style="rounded=0;whiteSpace=wrap;html=1;fontFamily=Times New Roman;fontSize=14;" parent="1" vertex="1">
          <mxGeometry x="20" y="510" width="60" height="40" as="geometry" />
        </mxCell>
        <mxCell id="DmQkIlmsLLkJQzEmTqlr-10" value="fraksi" style="rounded=0;whiteSpace=wrap;html=1;fontFamily=Times New Roman;fontSize=14;" parent="1" vertex="1">
          <mxGeometry x="100" y="510" width="60" height="40" as="geometry" />
        </mxCell>
        <mxCell id="DmQkIlmsLLkJQzEmTqlr-16" style="edgeStyle=orthogonalEdgeStyle;rounded=0;orthogonalLoop=1;jettySize=auto;html=1;fontFamily=Times New Roman;fontSize=14;" parent="1" source="DmQkIlmsLLkJQzEmTqlr-11" edge="1">
          <mxGeometry relative="1" as="geometry">
            <mxPoint x="130" y="620" as="targetPoint" />
            <Array as="points">
              <mxPoint x="210" y="580" />
              <mxPoint x="130" y="580" />
            </Array>
          </mxGeometry>
        </mxCell>
        <mxCell id="DmQkIlmsLLkJQzEmTqlr-11" value="Eluat F. 3" style="rounded=0;whiteSpace=wrap;html=1;fontFamily=Times New Roman;fontSize=14;" parent="1" vertex="1">
          <mxGeometry x="180" y="510" width="60" height="40" as="geometry" />
        </mxCell>
        <mxCell id="DmQkIlmsLLkJQzEmTqlr-17" value="diuji kemurniannya (3 sistem eluen berbeda dan&amp;nbsp; uji titik leleh)" style="text;html=1;strokeColor=none;fillColor=none;align=center;verticalAlign=middle;whiteSpace=wrap;rounded=0;fontFamily=Times New Roman;fontSize=14;" parent="1" vertex="1">
          <mxGeometry x="140" y="590" width="200" height="30" as="geometry" />
        </mxCell>
        <mxCell id="DmQkIlmsLLkJQzEmTqlr-18" value="Senyawa Murni" style="rounded=0;whiteSpace=wrap;html=1;fontFamily=Times New Roman;fontSize=14;" parent="1" vertex="1">
          <mxGeometry x="90" y="620" width="80" height="40" as="geometry" />
        </mxCell>
        <mxCell id="uvow_Irc7swt16wV5HG2-1" value="" style="edgeStyle=orthogonalEdgeStyle;rounded=0;orthogonalLoop=1;jettySize=auto;html=1;fontFamily=Times New Roman;fontSize=14;" edge="1" parent="1">
          <mxGeometry relative="1" as="geometry">
            <mxPoint x="461" y="510" as="targetPoint" />
            <mxPoint x="461" y="449.9999999999999" as="sourcePoint" />
          </mxGeometry>
        </mxCell>
        <mxCell id="uvow_Irc7swt16wV5HG2-2" value="Eluat F. 1" style="rounded=0;whiteSpace=wrap;html=1;fontFamily=Times New Roman;fontSize=14;" vertex="1" parent="1">
          <mxGeometry x="431" y="510" width="60" height="40" as="geometry" />
        </mxCell>
      </root>
    </mxGraphModel>
  </diagram>
</mxfile>
